<svg xmlns="http://www.w3.org/2000/svg" viewBox="0 0 674.49 69.79"><defs><style>.cls-1{fill:#f6731c;}.cls-2{fill:#3b6d9a;}</style></defs><g id="Слой_2" data-name="Слой 2"><g id="Слой_2-2" data-name="Слой 2"><path class="cls-1" d="M430.38,44.7h44.91A5,5,0,0,0,480,40a3,3,0,0,0-.86-2.2A2.94,2.94,0,0,0,477,37H444.17l6.08-28.28h22.42L468,19.79h24l3-7.1a13.49,13.49,0,0,0,1.18-5q0-6.27-8.15-6.69H439.62a16.94,16.94,0,0,0-6.14,1.45,13.86,13.86,0,0,0-8.14,10.28L421.06,32.9a15.3,15.3,0,0,0-.34,3.11Q420.72,44.16,430.38,44.7Z"/><path class="cls-2" d="M519.17,32.42h16.49L533.93,44.7h8.21a15.46,15.46,0,0,0,4.83-1,10,10,0,0,0,6.28-7.11l4-21.8H538.62L536.9,27.11H520.41l1.8-12.28H503.58l-6,29.87h19.94Z"/><path class="cls-2" d="M565.32,44.7h43.81l4.63-21.87a8.72,8.72,0,0,0,.27-2.07q0-5.6-6.62-6H569A3.85,3.85,0,0,0,566.22,16,3.76,3.76,0,0,0,565,18.72a2.3,2.3,0,0,0,2.62,2.59h25.94l-.62,2.9H569.67a13.44,13.44,0,0,0-4.28,1,9.69,9.69,0,0,0-5.52,7.08l-1,4.34a11.3,11.3,0,0,0-.21,2.13C558.7,42.45,560.91,44.43,565.32,44.7Zm15.46-13.94h10.76L590,38.15H579.19Z"/><path class="cls-2" d="M623.42,44.7H658.6a11.37,11.37,0,0,0,4.28-1,9.3,9.3,0,0,0,5.52-7l3-13.73a13.11,13.11,0,0,0,.2-2.14q0-5.6-6.55-5.93H642.46L644,7.44h21.39a3.82,3.82,0,0,0,2.76-1.22,3.76,3.76,0,0,0,1.24-2.73,2.31,2.31,0,0,0-2.62-2.6H637.63a19.08,19.08,0,0,0-6.76,1.66,14.78,14.78,0,0,0-8.7,11.1Q621,17.87,620,22.9l-3,13.73a12.16,12.16,0,0,0-.21,2.14Q616.79,44.29,623.42,44.7ZM640.8,21.38h10.28L647.5,38.15H637.28Z"/><path class="cls-1" d="M36,7.73H75.82a4.28,4.28,0,0,0,2.52-.86A5,5,0,0,0,80.1,4.62,3.29,3.29,0,0,0,80,1.45,2.82,2.82,0,0,0,77.41,0H25.25Q15.38.55,12.08,8.69a15.9,15.9,0,0,0-1,3.11L4.69,43.74H28.63Z"/><path class="cls-2" d="M88,23.25a13.38,13.38,0,0,0-4.28,1,9.64,9.64,0,0,0-5.52,7.09l-1,4.33a12.16,12.16,0,0,0-.2,2.13q0,5.51,6.62,5.91H127.5l4.62-21.87a8.21,8.21,0,0,0,.28-2.07q0-5.58-6.62-6H87.35A3.82,3.82,0,0,0,84.59,15a3.77,3.77,0,0,0-1.25,2.73A2.31,2.31,0,0,0,86,20.35h25.94l-.62,2.9Zm20.28,13.94H97.56l1.58-7.38h10.77Z"/><path class="cls-2" d="M140.75,43.74h34.7q6.77-.41,6.76-6.14a9.71,9.71,0,0,0-.21-1.93l-1.31-6.9,4.28-7a8.82,8.82,0,0,0,1.66-4.48q0-3.32-4.76-3.52H147.09a10.83,10.83,0,0,0-4.07,1,7.41,7.41,0,0,0-4.14,7L138.81,25H155.3l.07-5.93h14.49l-5.93,9.66,1.86,9.66H135.23a4.29,4.29,0,0,0-.07.76Q135.16,43.47,140.75,43.74Z"/><path class="cls-1" d="M278.24,36a12.71,12.71,0,0,0-.42-3.11l-2.69-12.14,5.8-8c1.84-2.58,2.76-4.76,2.76-6.56q0-4.76-7.59-5.24H215.24L205.93,44.7h62.44Q278.24,44,278.24,36Zm-24,1H231.6l6-28.28H259l-7.87,12.1Z"/><path class="cls-2" d="M293.07,44.7h35.18a11.37,11.37,0,0,0,4.28-1,9.3,9.3,0,0,0,5.52-7l3-13.73a12.16,12.16,0,0,0,.21-2.14q0-5.6-6.56-5.93H299.42a12.18,12.18,0,0,0-4.28,1,9.48,9.48,0,0,0-5.52,7.11l-3,13.73a12.16,12.16,0,0,0-.21,2.14Q286.44,44.29,293.07,44.7Zm17.38-23.32h10.28l-3.58,16.77H306.94Z"/><path class="cls-2" d="M362.48,44.84h28.14L387.24,57h14.15l4.34-15.31h-4.27l5.72-26.84h-1.31l.21-.07H373.24a16.65,16.65,0,0,0-4.56,1,13.65,13.65,0,0,0-7.38,7l-9.11,18.84H349.3L345,57h14.14Zm19.87-23.53h2.89L380.9,41.73h-8.42Z"/><path class="cls-2" d="M669.49,59.79H5a5,5,0,0,0,0,10H669.49a5,5,0,0,0,0-10Z"/></g></g></svg>