<svg width="242" height="37" viewBox="0 0 242 37" fill="none" xmlns="http://www.w3.org/2000/svg">
<path d="M241.478 0.71875H0V36.2568H241.478V0.71875Z" fill="white"/>
<path d="M164.821 21.1283C165.11 21.1283 165.346 21.2273 165.528 21.4252C165.726 21.6078 165.825 21.8438 165.825 22.133C165.825 22.5135 165.665 22.8637 165.346 23.1833C165.026 23.503 164.668 23.6628 164.273 23.6628H149.408C147.277 23.5411 146.211 22.582 146.211 20.7858C146.211 20.4662 146.249 20.1237 146.326 19.7583L147.741 13.0681C148.091 11.4546 148.989 10.3205 150.436 9.66597C151.029 9.39197 151.707 9.23214 152.468 9.18647H168.497C170.293 9.27781 171.191 10.0161 171.191 11.4013C171.191 11.8884 171.062 12.444 170.803 13.0681L169.821 15.42H161.875L163.405 11.7438H155.984L153.975 21.1283H164.821ZM191.405 13.776L190.08 20.9913C189.806 22.1025 189.114 22.8865 188.002 23.3432C187.53 23.5258 186.998 23.6324 186.404 23.6628H183.687L184.258 19.5985H178.801L178.253 23.6628H171.654L173.64 13.776H179.805L179.212 17.8403H184.669L185.24 13.776H191.405ZM194.07 23.6628C192.609 23.5715 191.878 22.9169 191.878 21.6992C191.878 21.4708 191.901 21.2349 191.947 20.9913L192.266 19.5528C192.51 18.4416 193.119 17.6577 194.093 17.201C194.504 17.0183 194.976 16.9042 195.509 16.8585H203.204L203.409 15.9452H194.824C194.245 15.9452 193.956 15.6559 193.956 15.0775C193.956 14.7426 194.093 14.4381 194.367 14.1641C194.641 13.8901 194.945 13.7531 195.28 13.7531H207.999C209.46 13.8445 210.191 14.5066 210.191 15.7396C210.191 15.9528 210.16 16.1811 210.099 16.4247L208.569 23.6628H194.07ZM198.66 21.4937H202.222L202.747 19.0505H199.185L198.66 21.4937ZM227.06 13.776C228.506 13.8521 229.229 14.5066 229.229 15.7396C229.229 15.9528 229.206 16.1887 229.16 16.4475L228.179 20.9913C227.95 22.1025 227.341 22.8789 226.352 23.3203C225.941 23.5182 225.469 23.6324 224.936 23.6628H213.291C211.83 23.5715 211.099 22.9169 211.099 21.6992C211.099 21.486 211.122 21.2501 211.168 20.9913L212.15 16.4475C212.378 15.3363 212.621 14.3164 212.88 13.3878C213.246 11.6373 214.205 10.4119 215.757 9.71164C216.412 9.40719 217.158 9.22453 217.995 9.16364H227.653C228.232 9.16364 228.521 9.45286 228.521 10.0313C228.521 10.3662 228.384 10.6706 228.11 10.9446C227.836 11.2186 227.532 11.3556 227.197 11.3556H220.118L219.593 13.776H227.06ZM222.447 15.9452H219.045L217.881 21.4937H221.26L222.447 15.9452Z" fill="#3F4E5D"/>
<path d="M18.8817 11.3478L16.4613 23.2668H8.53817L10.6617 12.695C10.7378 12.3296 10.8443 11.9871 10.9813 11.6675C11.712 9.87126 13.1657 8.91225 15.3425 8.79048H32.6045C32.9851 8.79048 33.2667 8.95031 33.4494 9.26998C33.6473 9.58964 33.6625 9.93976 33.495 10.3203C33.3733 10.6248 33.1754 10.8759 32.9014 11.0738C32.6426 11.2565 32.3686 11.3478 32.0794 11.3478H18.8817ZM34.6924 23.2668C33.231 23.1755 32.5004 22.5209 32.5004 21.3032C32.5004 21.0748 32.5232 20.8389 32.5689 20.5953L32.8885 19.1568C33.1321 18.0456 33.741 17.2617 34.7152 16.805C35.1262 16.6223 35.5981 16.5082 36.1309 16.4625H43.8257L44.0312 15.5492H35.4459C34.8674 15.5492 34.5782 15.2599 34.5782 14.6815C34.5782 14.3466 34.7152 14.0422 34.9892 13.7682C35.2632 13.4942 35.5676 13.3572 35.9025 13.3572H48.6207C50.0821 13.4485 50.8127 14.1107 50.8127 15.3437C50.8127 15.5568 50.7823 15.7851 50.7214 16.0287L49.1916 23.2668H34.6924ZM39.2819 21.0977H42.8439L43.369 18.6545H39.807L39.2819 21.0977ZM67.2253 20.5953C67.2709 20.8237 67.2938 21.0368 67.2938 21.2347C67.2938 22.4981 66.5479 23.1755 65.0561 23.2668H53.5709C52.3379 23.2059 51.7214 22.7036 51.7214 21.7598C51.7214 21.6837 51.729 21.6 51.7443 21.5087H61.8594L61.2429 18.312L63.2066 15.1153H58.4116L58.3888 17.079H52.9316L52.9544 16.0058C52.9696 14.9098 53.4263 14.1335 54.3244 13.6768C54.705 13.4942 55.154 13.3876 55.6716 13.3572H67.1796C68.2299 13.4028 68.7551 13.791 68.7551 14.5217C68.7551 14.9327 68.5724 15.4274 68.2071 16.0058L66.7914 18.312L67.2253 20.5953Z" fill="#3F4E5D"/>
<path d="M98.9237 19.6802C99.0151 20.0455 99.0607 20.388 99.0607 20.7077C99.0607 22.4735 97.9723 23.4325 95.7955 23.5847H75.1313L78.2139 9.10835H98.3529C100.027 9.2149 100.865 9.79335 100.865 10.8437C100.865 11.4374 100.56 12.1604 99.9512 13.0129L98.0332 15.6615L98.9237 19.6802ZM91.1147 21.0045L90.0872 15.6615L92.6902 11.6657H85.6119L83.6254 21.0045H91.1147ZM117.738 13.6979C119.184 13.774 119.907 14.4285 119.907 15.6615C119.907 15.8746 119.885 16.1106 119.839 16.3694L118.857 20.9132C118.629 22.0244 118.02 22.8008 117.03 23.2422C116.619 23.4401 116.148 23.5543 115.615 23.5847H103.97C102.508 23.4934 101.778 22.8388 101.778 21.621C101.778 21.4079 101.801 21.172 101.846 20.9132L102.828 16.3694C103.056 15.2581 103.665 14.4742 104.655 14.0175C105.066 13.8349 105.538 13.7283 106.07 13.6979H117.738ZM113.126 15.867H109.724L108.559 21.4155H111.939L113.126 15.867ZM122.579 22.58H123.538L126.552 16.3465C127.084 15.2353 127.899 14.459 128.995 14.0175C129.467 13.8349 129.969 13.7207 130.502 13.675H141.37L141.302 13.6979H141.736L139.841 22.58H141.256L139.818 27.649H135.137L136.256 23.6304H126.94L125.821 27.649H121.14L122.579 22.58ZM130.251 22.6029H133.036L134.475 15.8442H133.516L130.251 22.6029Z" fill="#3F4E5D"/>
</svg>
